<?xml version="1.0" standalone="no"?>
<!DOCTYPE svg PUBLIC "-//W3C//DTD SVG 20010904//EN"
 "http://www.w3.org/TR/2001/REC-SVG-20010904/DTD/svg10.dtd">
<svg version="1.0" xmlns="http://www.w3.org/2000/svg"
 width="411.000000pt" height="117.000000pt" viewBox="0 0 411.000000 117.000000"
 preserveAspectRatio="xMidYMid meet">

<g transform="translate(0.000000,117.000000) scale(0.100000,-0.100000)"
fill="#000000" stroke="none">
<path d="M3387 1119 c-43 -10 -111 -43 -147 -71 l-25 -20 -5 39 -5 38 -409 3
c-344 2 -412 0 -425 -12 -14 -13 -23 -13 -71 0 -74 19 -1409 21 -1428 2 -7 -7
-12 -25 -12 -40 0 -15 -2 -28 -4 -28 -2 0 -26 11 -53 25 -95 49 -145 55 -443
55 -201 0 -279 -3 -288 -12 -19 -19 -17 -292 3 -308 8 -7 15 -17 15 -22 0 -5
9 -21 20 -36 18 -25 20 -40 18 -137 -3 -101 -5 -110 -23 -113 -42 -8 -45 -19
-45 -166 0 -139 1 -143 26 -174 l27 -32 286 0 c273 1 289 2 351 24 36 12 73
26 82 30 12 5 25 -1 44 -23 l27 -31 1126 0 1125 0 28 27 27 26 73 -34 73 -34
191 -3 c238 -4 275 6 369 102 113 115 145 209 145 427 0 74 -5 162 -11 195
-29 157 -123 260 -274 300 -57 16 -327 17 -388 3z m373 -111 c76 -34 121 -76
157 -145 38 -71 53 -141 53 -241 0 -180 -68 -299 -209 -366 -62 -29 -72 -31
-181 -31 -149 1 -209 23 -291 104 -83 84 -104 142 -104 301 0 119 1 128 31
190 51 107 113 165 217 202 79 28 252 21 327 -14z m-3135 -2 c141 -37 242
-132 275 -256 17 -63 14 -180 -5 -246 -30 -103 -91 -175 -186 -218 -83 -39
-142 -46 -360 -46 l-199 0 0 75 0 75 35 0 35 0 0 240 0 240 -35 0 -35 0 0 75
0 75 213 0 c145 0 228 -4 262 -14z m995 -111 l0 -125 -95 0 -95 0 0 50 0 50
-90 0 -90 0 0 -75 0 -75 105 0 105 0 0 -75 0 -75 -105 0 -105 0 0 -90 0 -90
90 0 90 0 0 50 0 50 95 0 95 0 0 -125 0 -125 -335 0 -335 0 0 75 0 75 35 0 35
0 0 240 0 240 -35 0 -35 0 0 75 0 75 335 0 335 0 0 -125z m618 110 c94 -28
142 -89 142 -180 0 -62 -20 -105 -66 -143 -26 -22 -33 -32 -22 -32 26 0 89
-60 109 -105 49 -108 -7 -246 -116 -284 -29 -10 -114 -15 -317 -18 l-278 -5 0
76 0 76 30 0 30 0 0 245 0 245 -30 0 -30 0 0 70 0 70 248 0 c193 0 260 -3 300
-15z m882 -110 l0 -125 -95 0 -95 0 0 50 0 50 -90 0 -90 0 0 -75 0 -75 105 0
105 0 0 -75 0 -75 -105 0 -105 0 0 -90 0 -90 90 0 90 0 0 50 0 50 95 0 95 0 0
-125 0 -125 -335 0 -335 0 0 75 0 75 35 0 35 0 0 240 0 240 -35 0 -35 0 0 75
0 75 335 0 335 0 0 -125z m-1465 -286 c16 -16 -10 -31 -51 -27 -42 3 -61 32
-27 41 22 6 65 -1 78 -14z m1420 -9 c3 -5 1 -10 -4 -10 -6 0 -11 5 -11 10 0 6
2 10 4 10 3 0 8 -4 11 -10z"/>
<path d="M3527 859 c-50 -29 -83 -175 -67 -292 11 -77 21 -99 58 -140 33 -35
83 -37 117 -3 76 76 72 340 -5 418 -30 29 -70 36 -103 17z m51 -270 c4 -40
-12 -30 -22 14 -5 21 -3 28 6 25 7 -3 14 -20 16 -39z"/>
<path d="M450 631 l0 -241 38 0 c60 0 103 30 136 94 26 50 30 67 30 149 0 152
-47 226 -149 235 l-55 4 0 -241z"/>
<path d="M1990 790 l0 -80 46 0 c60 0 82 13 90 54 13 71 -16 106 -87 106 l-49
0 0 -80z"/>
<path d="M1990 486 l0 -96 60 0 c79 0 110 26 110 93 0 69 -23 90 -104 95 l-66
4 0 -96z"/>
</g>
</svg>
